# xmcd CD database file
#
# Track frame offsets:
#	187
#	17222
#	31320
#	49407
#	65297
#	85545
#	101225
#	116452
#	133110
#	150355
#
# Disc length: 2200 seconds
#
# Revision: 2
# Processed by: cddbd v1.5.1PL0 Copyright (c) Steve Scherf et al.
# Submitted via: CDex 1.51
#
DISCID=7a08960a
DTITLE=Steve Wariner - It's A Crazy World
DYEAR=1987
DGENRE=Country
TTITLE0=Small Town Girl
TTITLE1=Lynda
TTITLE2=If I Could Make A Livin' (Out Of Lovin' You)
TTITLE3=There's Always A First Time
TTITLE4=Why Do Heroes Die So Young
TTITLE5=When It Rains
TTITLE6=It's A Crazy World
TTITLE7=Hey Alarm Clock
TTITLE8=The Weekend
TTITLE9=Fastbreak
EXTD=YEAR: 1987
EXTT0=
EXTT1=
EXTT2=
EXTT3=
EXTT4=
EXTT5=
EXTT6=
EXTT7=
EXTT8=
EXTT9=
PLAYORDER=
